HIERARCHY
ROOT pelvis
{
  OFFSET 0 100 0
  CHANNELS 6 Xposition Yposition Zposition Zrotation Xrotation Yrotation
  JOINT pelvis_right_femur
  {
    OFFSET -10.78128 -3.44521 -0.5502486
    CHANNELS 3 Zrotation Xrotation Yrotation
    JOINT right_femur_tibia
    {
      OFFSET -0.8047443 -44.0398 -0.1307829
      CHANNELS 3 Zrotation Xrotation Yrotation
      JOINT right_tibia_foot
      {
        OFFSET 3.006224 -47.83518 -5
        CHANNELS 3 Zrotation Xrotation Yrotation
        End Site
        {
          OFFSET 0 -5 15
        }
      }
    }
  }
  JOINT pelvis_left_femur
  {
    OFFSET 10.78128 -3.44521 -0.5502486
    CHANNELS 3 Zrotation Xrotation Yrotation
    JOINT left_femur_tibia
    {
      OFFSET 0.8047443 -44.0398 -0.1307829
      CHANNELS 3 Zrotation Xrotation Yrotation
      JOINT left_tibia_foot
      {
        OFFSET -4.370144 -48.10324 -4.275266
        CHANNELS 3 Zrotation Xrotation Yrotation
        End Site
        {
          OFFSET 0 -5 15
        }
      }
    }
  }
  JOINT pelvis_spine1
  {
    OFFSET 0 6.468898 -3.129235
    CHANNELS 3 Zrotation Xrotation Yrotation
    JOINT spine1
    {
      OFFSET 0 23.15396 4.99043
      CHANNELS 3 Zrotation Xrotation Yrotation
      JOINT spine2
      {
        OFFSET 0 20.79997 -5.064912
        CHANNELS 3 Zrotation Xrotation Yrotation
        JOINT neck
        {
          OFFSET 0 14.38658 9.616178
          CHANNELS 3 Zrotation Xrotation Yrotation
          End Site
          {
            OFFSET 0 20 0
          }
        }
      }
      JOINT right_manubrium
      {
        OFFSET -5.722621 16.35077 3.967754
        CHANNELS 3 Zrotation Xrotation Yrotation
        JOINT right_clavicle
        {
          OFFSET -13.16364 1.694482 -4.693211
          CHANNELS 3 Zrotation Xrotation Yrotation
          JOINT right_humerus
          {
            OFFSET -28.5034 -0.3100689 -2.792744
            CHANNELS 3 Zrotation Xrotation Yrotation
            JOINT right_radius
            {
              OFFSET -25.15693 0.02248979 -1.271978
              CHANNELS 3 Zrotation Xrotation Yrotation
              End Site
              {
                OFFSET -15 0 0
              }
            }
          }
        }
      }
      JOINT left_manubrium
      {
        OFFSET 5.722621 16.35077 3.967754
        CHANNELS 3 Zrotation Xrotation Yrotation
        JOINT left_clavicle
        {
          OFFSET 13.16364 1.694482 -4.693211
          CHANNELS 3 Zrotation Xrotation Yrotation
          JOINT left_humerus
          {
            OFFSET 29.39168 -1.063119 -2.237045
            CHANNELS 3 Zrotation Xrotation Yrotation
            JOINT left_radius
            {
              OFFSET 24.59957 -0.9528479 0.9047498
              CHANNELS 3 Zrotation Xrotation Yrotation
              End Site
              {
                OFFSET 15 -0 -0
              }
            }
          }
        }
      }
    }
  }
}
MOTION
Frames: 11
Frame Time: 0.0416666666667
0 103.5113 0 2.86225 -0.1300437 0.1341357 0.3441211 -8.749451 9.467711 -0 32.63208 -0 -9.740507 -16.00827 -4.240746 -8.559948 6.712411 -20.25428 -0 7.731384 -0 8.75277 -15.60922 22.87224 -5.906733 -5.709459 4.456893 2.409414 8.645034 -7.485455 1.270389 22.14158 5.909641 2.27461 -22.63837 7.886421 6.720901 -18.84065 14.92242 85.59023 37.79475 -16.89027 -0 0 14.28055 -15.37242 6.677265 14.79255 8.431154 -24.22802 -0.9609858 -96.78212 19.62624 27.06986 0 0 -15.65088 13.04604 3.527812 -4.05919
0.3221134 103.574 1.326482 2.364747 -0.02210876 0.2739683 1.491031 -12.51143 9.775878 -0 37.63627 -0 -9.845266 -15.28683 -6.046599 -8.158087 7.568612 -20.08827 -0 7.522128 -0 8.248744 -16.46509 22.63388 -5.442192 -4.407737 4.008814 2.227877 9.185425 -7.696816 1.56526 21.08254 5.935775 2.462777 -23.94322 8.202154 6.600619 -19.27367 14.46902 85.55021 37.42846 -16.83852 -0 0 14.27389 -15.64289 6.872288 14.78839 8.429263 -24.29146 -0.5180864 -95.70348 19.35524 26.41579 0 0 -17.26761 13.25789 3.016791 -4.043302
0.5323022 103.6456 2.79532 1.704085 0.03338427 0.265696 2.776644 -16.70971 9.907836 -0 40.14985 -0 -9.794955 -14.49774 -7.075391 -7.54832 8.564188 -19.88625 -0 7.348376 -0 7.666912 -17.39185 22.38273 -4.974518 -3.175771 3.702464 2.138529 9.575446 -7.829408 1.823944 20.20429 6.048769 2.686548 -25.09767 8.575335 6.403563 -19.46521 14.08091 85.72568 37.05722 -17.09364 -0 0 14.00183 -15.83295 7.102558 14.69025 8.508003 -24.55023 -0.2546048 -94.54154 19.11116 25.37435 0 0 -19.38907 13.44125 2.571947 -4.163049
0.7119105 103.7418 4.650196 1.095983 0.1574115 0.01027212 4.184639 -21.00822 9.658359 -0 40.34524 -0 -9.532555 -13.27239 -7.456031 -7.028642 9.610655 -19.64789 -0 7.334221 -0 7.022944 -18.40232 22.16163 -4.551451 -2.10027 3.658812 2.330859 9.899986 -7.864652 1.903026 19.48215 6.273264 2.856252 -26.13199 8.92501 6.158397 -19.60942 13.68285 85.69673 36.69728 -17.44472 -0 0 13.38043 -15.96423 7.365286 14.42674 8.872584 -24.58244 -0.1027093 -93.6298 18.81861 24.19087 0 0 -22.17383 13.65507 2.227297 -4.381281
0.9486748 103.5258 6.634812 0.5018156 0.4897468 -0.1497775 5.21809 -25.34429 9.50577 -0 37.71417 -0 -9.147845 -12.04537 -7.095249 -6.581502 10.62719 -19.22585 -0 7.354383 -0 6.362018 -19.50694 21.86095 -4.211431 -0.9949872 3.652786 2.726083 10.04097 -7.984317 1.967243 18.78448 6.484296 3.030421 -27.04188 9.225586 5.833974 -19.6092 13.29204 85.68234 36.36114 -18.00892 -0 0 12.46419 -15.98894 7.684643 14.03471 9.472879 -24.80101 -0.1550112 -92.71717 18.54561 22.56398 0 0 -25.70511 13.84815 1.970755 -4.829373
1.080628 103.0317 9.346497 0.05002702 0.7255343 -0.691296 5.983671 -28.9842 9.448934 -0 32.88456 -0 -8.665772 -10.73659 -6.268755 -6.44419 11.73808 -18.97903 -0 8.021539 -0 5.680007 -20.67563 21.50244 -4.045848 -0.2828088 3.91517 3.080998 10.20024 -7.892359 2.045636 18.24343 6.647437 3.226293 -27.7432 9.446083 5.392227 -19.34992 12.72829 85.94522 36.01957 -18.83957 -0 0 11.48593 -15.95679 8.061634 13.63519 10.29424 -24.99918 0.08760561 -91.70859 18.12761 20.77218 0 0 -29.64605 14.10541 1.769395 -5.397664
1.280076 102.375 12.16969 -0.1785496 1.262844 -0.7204474 6.445133 -32.36174 8.846314 -0 26.934 -0 -8.152578 -9.03505 -5.467975 -6.529336 12.82952 -18.28296 -0 8.518137 -0 4.878722 -21.77724 20.80142 -3.927442 0.5152918 4.221526 3.378195 10.12035 -7.731661 2.188972 17.85938 6.746333 3.473968 -28.26068 9.600237 4.877373 -19.38291 12.17442 86.02591 35.74092 -19.36941 -0 0 10.73229 -15.92088 8.483458 13.30128 11.22476 -25.30057 0.4186971 -90.57132 17.59792 18.82996 0 0 -33.49666 14.35537 1.583106 -5.901763
1.385263 101.4955 15.71858 -0.2121692 1.639357 -1.069663 6.742399 -34.65349 8.079748 -0 21.14703 -0 -7.732808 -7.516672 -4.650719 -6.693065 14.11085 -17.62134 -0 9.730116 -0 3.824403 -22.69194 19.63373 -3.759616 0.7516833 4.441942 3.405963 10.03746 -7.650581 2.069416 17.85902 6.924444 3.6157 -28.4064 9.5865 4.507588 -18.92784 11.6341 86.65735 35.46749 -20.34441 -0 0 9.765865 -15.74118 9.003564 12.91547 11.6982 -25.8708 0.7278669 -89.58927 16.96679 16.86842 0 0 -36.60528 14.50546 1.404508 -6.14479
1.485602 100.5004 19.72735 -0.3903238 2.046622 -0.7490944 7.153173 -36.04663 7.565844 -0 16.84713 -0 -7.565361 -6.20308 -3.758255 -6.758474 15.2545 -16.66143 -0 11.68601 -0 2.447603 -23.04638 17.97236 -3.651979 1.111764 4.470726 3.339146 10.16392 -7.802429 2.20086 17.55322 6.994731 3.867938 -28.51288 9.610205 4.378586 -18.53201 11.11751 87.3521 35.23789 -21.3574 -0 0 8.835174 -15.5031 9.595878 12.53853 11.58824 -26.26957 1.069769 -88.49702 16.35797 15.53799 0 0 -38.33337 14.51175 1.251865 -5.943103
1.619105 99.99026 24.30812 -0.6408722 2.380265 -0.1023419 7.374361 -35.89981 7.3436 -0 15.57912 -0 -7.994584 -5.300638 -3.03294 -6.308183 16.07613 -15.45992 -0 14.7611 -0 0.559702 -22.23995 15.63503 -3.227044 1.288317 4.172002 3.354517 10.09443 -8.287729 2.149678 17.52368 7.119936 4.002861 -28.38389 9.571946 4.477987 -18.22586 10.70339 87.95461 35.07551 -22.31588 -0 0 7.872638 -15.27698 10.2387 12.13111 11.04801 -26.72303 1.084507 -87.38297 15.90905 14.60736 0 0 -38.51931 14.35767 1.121803 -5.216705
1.594604 99.70681 29.44212 -1.091943 3.031294 0.8998514 7.859011 -34.05568 7.487549 -0 16.60878 -0 -8.692778 -4.821032 -2.624423 -5.455524 16.66355 -14.64722 -0 19.0295 -0 -1.594956 -19.78038 13.09959 -2.545167 0.8919453 3.733225 3.280239 9.828253 -8.869586 1.957813 17.50542 7.300075 4.015152 -28.00675 9.513951 4.594599 -17.77862 10.28389 88.75814 34.91728 -23.27848 -0 0 7.061797 -15.08942 10.92535 11.76916 10.25738 -26.95279 0.9257816 -86.39025 15.58898 14.26813 0 0 -37.25289 14.11872 0.9762924 -4.016541
